<svg width="22" height="21" viewBox="0 0 22 21" fill="none" xmlns="http://www.w3.org/2000/svg">
<path d="M18.5521 3.59264C16.6387 1.57581 14.0402 0.408053 11.2616 0.322473C5.48489 0.144556 0.660581 4.63692 0.482247 10.3601C0.425812 12.1712 0.881234 13.9981 1.7113 15.5465L0.0818023 20.8624L5.68425 19.5847C7.19499 20.4289 8.86326 20.9153 10.6182 20.9694C16.3949 21.1473 21.2192 16.6549 21.3975 10.9318C21.4079 8.24903 20.4655 5.60947 18.5521 3.59264ZM15.8691 14.5323C15.6316 15.1051 14.5899 15.6531 14.0758 15.7098C13.6348 15.7687 13.0498 15.7507 12.4693 15.5878C12.1082 15.4316 11.6009 15.271 11.0249 14.9632C8.42638 13.7954 6.82584 11.1356 6.68636 10.9138C6.54463 10.7644 5.63242 9.50351 5.67305 8.19949C5.71369 6.89548 6.38984 6.33619 6.61824 6.05316C6.84664 5.77014 7.13913 5.77914 7.35849 5.7859C7.50474 5.79041 7.7241 5.79716 7.87035 5.80167C8.01659 5.80617 8.23822 5.74048 8.44179 6.25435C8.64535 6.76823 9.11657 8.08801 9.18744 8.16271C9.25605 8.30985 9.25153 8.45474 9.17389 8.59738C9.09626 8.74002 9.01862 8.88265 8.86786 9.02304C8.7171 9.16343 8.56408 9.37626 8.4887 9.44645C8.33794 9.58684 8.18719 9.72722 8.32666 9.94906C8.46387 10.2433 8.9509 11.056 9.73267 11.8052C10.7293 12.7061 11.5246 13.0207 11.8126 13.1746C12.1006 13.3285 12.2491 13.2605 12.3998 13.1201C12.5506 12.9797 13.0805 12.416 13.2358 12.1307C13.391 11.8454 13.6082 11.9246 13.8253 12.0038C14.0424 12.083 15.3383 12.7756 15.5531 12.9272C15.8411 13.0811 15.9851 13.158 16.0559 13.2327C16.1223 13.4523 16.1065 13.9594 15.8691 14.5323Z" fill="black"/>
</svg>
