<svg width="21" height="21" viewBox="0 0 21 21" fill="none" xmlns="http://www.w3.org/2000/svg">
<path d="M10.6386 2.44831C13.2875 2.52989 13.6487 2.54101 14.7323 2.57439C15.6955 2.60405 16.1697 2.85829 16.5271 2.98912C17.0013 3.24336 17.3588 3.37419 17.7088 3.74442C18.0588 4.11466 18.2884 4.48118 18.3939 4.9637C18.5031 5.32652 18.6086 5.80904 18.6992 6.77037C18.6656 7.8477 18.6581 8.08711 18.5723 10.8403C18.4865 13.5934 18.4791 13.8329 18.4455 14.9102C18.4157 15.8678 18.16 16.3392 18.0284 16.6946C17.7726 17.166 17.641 17.5214 17.2686 17.8694C16.8963 18.2174 16.5276 18.4456 16.0422 18.5505C15.6773 18.6591 15.192 18.764 14.225 18.854C13.1414 18.8206 12.9006 18.8132 10.1313 18.7279C7.36209 18.6426 7.12128 18.6352 6.03766 18.6018C5.07444 18.5722 4.60029 18.3179 4.24282 18.1871C3.76867 17.9329 3.41119 17.802 3.06117 17.4318C2.71116 17.0616 2.48154 16.695 2.37606 16.2125C2.26685 15.8497 2.16136 15.3672 2.0708 14.4059C2.10437 13.3285 2.11183 13.0891 2.19762 10.336C2.28341 7.58278 2.29087 7.34337 2.32444 6.26605C2.35428 5.30842 2.61 4.83703 2.7416 4.48163C2.99732 4.01023 3.12891 3.65483 3.50131 3.30684C3.87371 2.95886 4.24237 2.73058 4.72771 2.62571C5.09265 2.51713 5.57799 2.41226 6.54494 2.32222C7.62856 2.3556 7.98976 2.36672 10.6386 2.44831ZM10.6946 0.652759C7.92531 0.567468 7.68451 0.560052 6.60089 0.526677C5.51727 0.493302 4.78739 0.71046 4.17792 0.931324C3.56845 1.15219 2.95525 1.49276 2.33459 2.07273C1.71392 2.6527 1.4582 3.1241 1.07461 3.83119C0.815159 4.42229 0.672376 5.1368 0.518404 6.21042C0.484834 7.28775 0.473645 7.64686 0.391585 10.2803C0.305796 13.0335 0.298337 13.2729 0.264767 14.3502C0.231197 15.4276 0.449623 16.1532 0.671778 16.7591C0.893933 17.3651 1.23649 17.9747 1.81985 18.5918C2.40321 19.2088 2.87736 19.4631 3.58859 19.8444C4.18314 20.1024 4.90182 20.2443 5.98171 20.3974C7.06533 20.4308 7.42654 20.4419 10.0754 20.5235C12.7242 20.605 13.0854 20.6162 14.1691 20.6495C15.2527 20.6829 15.9826 20.4658 16.592 20.2449C17.2015 20.024 17.8147 19.6835 18.4354 19.1035C19.056 18.5235 19.3118 18.0521 19.6953 17.345C19.9548 16.7539 20.0976 16.0394 20.2516 14.9658C20.2851 13.8885 20.2963 13.5294 20.3784 10.8959C20.4604 8.26244 20.4716 7.90333 20.5052 6.826C20.5388 5.74867 20.3203 5.02304 20.0982 4.4171C19.876 3.81117 19.5335 3.20153 18.9501 2.58447C18.3667 1.96742 17.8926 1.71318 17.1814 1.33182C16.5868 1.07387 15.8681 0.931919 14.7882 0.778841C13.7046 0.745466 13.4638 0.73805 10.6946 0.652759Z" fill="black"/>
<path d="M10.5454 5.44088C7.65571 5.35188 5.2972 7.55578 5.20768 10.4287C5.11816 13.3015 7.33493 15.6463 10.2246 15.7353C13.1142 15.8243 15.4728 13.6204 15.5623 10.7476C15.6518 7.8747 13.435 5.52988 10.5454 5.44088ZM10.2805 13.9398C8.4745 13.8842 6.95403 12.3995 7.01371 10.4843C7.06966 8.68874 8.56298 7.1771 10.4894 7.23643C12.2955 7.29205 13.8159 8.7767 13.7562 10.6919C13.7003 12.4875 12.0866 13.9954 10.2805 13.9398Z" fill="black"/>
<path d="M15.8095 6.68138C16.4745 6.70186 17.0302 6.18253 17.0508 5.52143C17.0714 4.86033 16.5491 4.30779 15.8841 4.28731C15.2191 4.26683 14.6634 4.78616 14.6428 5.44726C14.6222 6.10836 15.1445 6.66089 15.8095 6.68138Z" fill="black"/>
</svg>
