<svg width="24" height="24" viewBox="0 0 24 24" fill="none" xmlns="http://www.w3.org/2000/svg">
<path d="M14.7003 6.30001C14.5171 6.48694 14.4145 6.73826 14.4145 7.00001C14.4145 7.26176 14.5171 7.51308 14.7003 7.70001L16.3003 9.30001C16.4873 9.48324 16.7386 9.58587 17.0003 9.58587C17.2621 9.58587 17.5134 9.48324 17.7003 9.30001L21.4703 5.53001C21.9732 6.6412 22.1254 7.87924 21.9068 9.07916C21.6882 10.2791 21.1091 11.3839 20.2466 12.2463C19.3842 13.1087 18.2794 13.6878 17.0795 13.9065C15.8796 14.1251 14.6415 13.9728 13.5303 13.47L6.62034 20.38C6.22252 20.7778 5.68295 21.0013 5.12034 21.0013C4.55773 21.0013 4.01817 20.7778 3.62034 20.38C3.22252 19.9822 2.99902 19.4426 2.99902 18.88C2.99902 18.3174 3.22252 17.7778 3.62034 17.38L10.5303 10.47C10.0275 9.35882 9.87526 8.12078 10.0939 6.92087C10.3125 5.72095 10.8916 4.61617 11.7541 3.75373C12.6165 2.8913 13.7213 2.31218 14.9212 2.09355C16.1211 1.87493 17.3592 2.02718 18.4703 2.53001L14.7103 6.29001L14.7003 6.30001Z" stroke="black" stroke-width="2" stroke-linecap="round" stroke-linejoin="round"/>
</svg>
