<svg xmlns="http://www.w3.org/2000/svg" xmlns:xlink="http://www.w3.org/1999/xlink"><symbol id="edit"><g fill="none"><path d="M11 4H4a2 2 0 0 0-2 2v14a2 2 0 0 0 2 2h14a2 2 0 0 0 2-2v-7" stroke="#252525" stroke-width="2" stroke-linecap="round" stroke-linejoin="round"/><path d="M18.5 2.5a2.121 2.121 0 1 1 3 3L12 15l-4 1 1-4 9.5-9.5Z" stroke="#252525" stroke-width="2" stroke-linecap="round" stroke-linejoin="round"/></g></symbol><symbol id="home"><g fill="none"><path d="m3 9 9-7 9 7v11a2 2 0 0 1-2 2H5a2 2 0 0 1-2-2V9Z" stroke="#252525" stroke-width="2" stroke-linecap="round" stroke-linejoin="round"/><path d="M9 22V12h6v10" stroke="#252525" stroke-width="2" stroke-linecap="round" stroke-linejoin="round"/></g></symbol><symbol id="icon-instagram"><g fill="none"><path d="m10.639 2.448 4.093.126c.963.03 1.438.284 1.795.415.474.254.832.385 1.182.755s.58.737.685 1.22c.11.363.215.845.305 1.806-.033 1.078-.04 1.317-.127 4.07l-.127 4.07c-.03.958-.285 1.43-.417 1.785-.255.471-.387.826-.76 1.174-.372.348-.74.577-1.226.681-.365.11-.85.214-1.817.304l-4.094-.126-4.093-.126c-.964-.03-1.438-.284-1.795-.415-.474-.254-.832-.385-1.182-.755s-.58-.737-.685-1.22c-.11-.362-.215-.845-.305-1.806a1137076.97 1137076.97 0 0 1 .253-8.14c.03-.958.286-1.429.418-1.784.255-.472.387-.827.76-1.175.372-.348.74-.576 1.226-.681.365-.109.85-.214 1.817-.304l4.094.126Zm.056-1.795L6.6.527C5.517.493 4.787.71 4.178.93c-.61.221-1.223.562-1.843 1.142-.621.58-.877 1.051-1.26 1.758-.26.591-.403 1.306-.557 2.38l-.126 4.07-.127 4.07c-.034 1.077.185 1.802.407 2.408a5.224 5.224 0 0 0 1.148 1.833c.583.617 1.057.871 1.769 1.252.594.258 1.313.4 2.393.553l4.093.127 4.094.125c1.084.034 1.814-.183 2.423-.404a5.265 5.265 0 0 0 1.843-1.142c.621-.58.877-1.05 1.26-1.758.26-.591.403-1.306.557-2.38l.126-4.07.127-4.069c.034-1.077-.185-1.803-.407-2.409a5.225 5.225 0 0 0-1.148-1.833c-.583-.617-1.057-.87-1.769-1.252-.594-.258-1.313-.4-2.393-.553L10.695.653Z" fill="#000"/><path d="M10.545 5.44c-2.89-.088-5.248 2.116-5.337 4.989-.09 2.873 2.127 5.217 5.017 5.306 2.89.09 5.248-2.115 5.337-4.987.09-2.873-2.127-5.218-5.017-5.307Zm-.264 8.5c-1.806-.056-3.327-1.54-3.267-3.456a3.359 3.359 0 0 1 3.475-3.248c1.806.056 3.327 1.54 3.267 3.456-.056 1.796-1.67 3.303-3.476 3.248ZM15.81 6.681c.664.02 1.22-.498 1.24-1.16a1.2 1.2 0 0 0-1.166-1.234 1.202 1.202 0 0 0-1.241 1.16 1.2 1.2 0 0 0 1.166 1.234Z" fill="#000"/></g></symbol><symbol id="icon-telegram"><g fill="none"><path d="m18.91.816-3.415 15.498s-.443 1.069-1.553.516L7.356 11.15l-.03-.017c.939-.837 8.225-7.338 8.544-7.633.494-.457.205-.747-.362-.408L4.836 9.781.848 8.224S.22 7.966.176 7.446c-.046-.521.741-.778.741-.778L17.571.364s1.37-.585 1.338.452Z" fill="#000"/></g></symbol><symbol id="icon-whatsup"><g fill="none"><path d="M18.552 3.593a10.453 10.453 0 0 0-7.29-3.27C5.485.144.66 4.636.482 10.36a10.43 10.43 0 0 0 1.23 5.187l-1.63 5.315 5.602-1.277c1.511.844 3.18 1.33 4.934 1.384 5.777.178 10.601-4.314 10.78-10.037.01-2.683-.933-5.323-2.846-7.34Zm-2.683 10.94c-.237.572-1.28 1.12-1.793 1.177a4.127 4.127 0 0 1-1.607-.122c-.36-.156-.868-.317-1.444-.625-2.599-1.168-4.2-3.827-4.339-4.05-.141-.149-1.054-1.41-1.013-2.714.04-1.304.717-1.863.945-2.146.229-.283.521-.274.74-.267l.512.016c.147.004.368-.062.572.452.203.514.675 1.834.745 1.909a.458.458 0 0 1-.013.434 1.516 1.516 0 0 1-.306.426c-.15.14-.304.353-.38.423-.15.14-.3.281-.161.503.137.294.624 1.107 1.406 1.856.996.901 1.792 1.216 2.08 1.37.288.153.436.085.587-.055.15-.14.68-.704.836-.99.155-.285.372-.205.59-.126.216.079 1.512.772 1.727.923.288.154.432.231.503.306.066.22.05.726-.187 1.3Z" fill="#000"/></g></symbol><symbol id="star"><g fill="none"><path d="m12 2 3.09 6.26L22 9.27l-5 4.87 1.18 6.88L12 17.77l-6.18 3.25L7 14.14 2 9.27l6.91-1.01L12 2Z" stroke="#252525" stroke-width="2" stroke-linecap="round" stroke-linejoin="round"/></g></symbol><symbol id="tool"><g fill="none"><path d="M14.7 6.3a1 1 0 0 0 0 1.4l1.6 1.6a1 1 0 0 0 1.4 0l3.77-3.77a6 6 0 0 1-7.94 7.94l-6.91 6.91a2.121 2.121 0 0 1-3-3l6.91-6.91a6 6 0 0 1 7.94-7.94l-3.76 3.76-.01.01Z" stroke="#000" stroke-width="2" stroke-linecap="round" stroke-linejoin="round"/></g></symbol></svg>