<svg width="106" height="37" fill="none" xmlns="http://www.w3.org/2000/svg"><path d="M102.006 25.078c1.072-.524 1.983-1.077 2.684-1.663-.671 1.523-1.916 2.92-3.718 4.194-2.848 2.016-7.034 3.684-12.339 5.008C78.031 35.264 63.112 36.5 45.906 36.5c-1.89 0-3.39-.015-4.535-.045 2.136-.326 5.307-.73 9.123-1.216 3.683-.47 7.966-1.015 12.498-1.641 9.637-1.331 20.372-3.021 28.703-5.095 4.162-1.037 7.752-2.175 10.311-3.425Zm-1.443-12.071c1.977 1.547 3.348 3.16 4.081 4.81-.713-.612-1.641-1.201-2.734-1.771-2.624-1.368-6.309-2.675-10.587-3.913-8.563-2.479-19.608-4.707-29.556-6.576C58.83 5.005 55.99 4.485 53.337 4 46.989 2.837 41.715 1.87 38.744 1.137a22.847 22.847 0 0 1-1.531-.424c.33-.04.745-.077 1.251-.107C39.632.536 41.261.5 43.41.5c17.182 0 32.717 2.307 43.939 6.023 5.614 1.86 10.12 4.062 13.214 6.484ZM36.414.375l.005.004a.027.027 0 0 1-.005-.004Zm-.044.517Z" stroke="#fff"/><path d="M.43 15.233c0-.522.1-1.01.3-1.468a3.846 3.846 0 0 1 2.012-2.013c.457-.199.946-.298 1.468-.298h5.783v2.522H4.21a1.25 1.25 0 0 0-1.16.765 1.315 1.315 0 0 0 0 .993c.064.152.152.287.263.404.118.111.252.2.405.264.152.064.316.096.492.096h2.522c.522 0 1.011.1 1.468.3a3.63 3.63 0 0 1 1.204.808c.346.34.616.741.809 1.204.2.457.299.946.299 1.468 0 .521-.1 1.01-.3 1.468A3.756 3.756 0 0 1 8.2 23.758c-.457.2-.946.3-1.468.3H1.134v-2.523h5.598a1.251 1.251 0 0 0 1.16-.765 1.25 1.25 0 0 0 .097-.492c0-.176-.032-.34-.096-.492a1.167 1.167 0 0 0-.273-.396 1.164 1.164 0 0 0-.395-.272 1.25 1.25 0 0 0-.493-.097H4.21c-.522 0-1.01-.1-1.468-.299a3.957 3.957 0 0 1-1.204-.808 3.955 3.955 0 0 1-.809-1.205 3.695 3.695 0 0 1-.298-1.476Zm21.683 3.788c0 .697-.132 1.354-.395 1.969a5.107 5.107 0 0 1-1.081 1.6 5.155 5.155 0 0 1-1.609 1.072 4.882 4.882 0 0 1-1.96.395 4.944 4.944 0 0 1-1.968-.395 5.184 5.184 0 0 1-1.6-1.073 5.184 5.184 0 0 1-1.072-1.6 4.945 4.945 0 0 1-.396-1.968v-7.567h2.514v7.567c0 .346.064.67.193.976a2.615 2.615 0 0 0 1.345 1.344c.31.13.639.194.984.194.346 0 .671-.065.976-.194.31-.135.58-.316.808-.545.23-.228.408-.495.537-.8.134-.304.202-.63.202-.975v-7.567h2.522v7.567Zm4.711-5.045v5.045h2.523c.345 0 .67-.065.975-.193.305-.135.572-.317.8-.545.229-.229.407-.495.536-.8.135-.31.202-.639.202-.985 0-.345-.067-.67-.202-.975a2.468 2.468 0 0 0-1.336-1.345 2.386 2.386 0 0 0-.975-.202h-2.523Zm0 10.081h-2.522V11.454h5.045c.463 0 .908.061 1.336.184.427.117.826.287 1.195.51.375.217.715.48 1.02.791.31.305.574.645.79 1.02.223.375.393.776.51 1.204.123.427.185.873.185 1.335 0 .692-.132 1.345-.396 1.96a5.105 5.105 0 0 1-1.08 1.6 5.08 5.08 0 0 1-1.61 1.081c-.608.264-1.259.396-1.95.396h-2.523v2.522Zm13.509 0c-.58 0-1.125-.108-1.635-.325a4.418 4.418 0 0 1-1.345-.905 4.42 4.42 0 0 1-.905-1.345 4.133 4.133 0 0 1-.325-1.635v-2.795h-1.169v-2.39h1.169V10.9h2.39v3.762h3.64v2.39h-3.64v2.795c0 .252.047.49.141.712.094.217.223.407.387.571.164.164.357.296.58.396.223.094.46.14.712.14h1.82v2.391h-1.82Zm12.27-4.79a5.1 5.1 0 0 1-.378 1.969 4.977 4.977 0 0 1-1.029 1.573c-.433.44-.943.788-1.529 1.046a4.649 4.649 0 0 1-1.872.378 4.689 4.689 0 0 1-1.872-.378 5.032 5.032 0 0 1-1.53-1.046 4.98 4.98 0 0 1-1.028-1.573 5.102 5.102 0 0 1-.378-1.969c0-.715.126-1.377.378-1.986a4.852 4.852 0 0 1 1.029-1.573c.439-.446.949-.794 1.529-1.046a4.689 4.689 0 0 1 1.872-.378c.668 0 1.292.12 1.872.36a4.44 4.44 0 0 1 1.53 1.01c.433.434.776.959 1.028 1.574.252.61.377 1.29.377 2.04Zm-2.418 0c0-.387-.064-.735-.193-1.046a2.38 2.38 0 0 0-.51-.808 2.136 2.136 0 0 0-.764-.519 2.319 2.319 0 0 0-.923-.184c-.328 0-.639.061-.932.184-.287.117-.539.29-.756.519-.21.222-.377.492-.5.808a2.82 2.82 0 0 0-.185 1.046c0 .363.061.7.184 1.01.123.311.29.58.501.81.217.228.47.41.756.544.293.13.604.194.932.194.328 0 .636-.062.923-.185a2.297 2.297 0 0 0 1.274-1.327c.13-.316.194-.665.194-1.046Zm10.662 3.692a6.675 6.675 0 0 1-.624.5 5.021 5.021 0 0 1-.686.405c-.24.111-.49.199-.747.263a2.86 2.86 0 0 1-.773.106c-.58 0-1.125-.103-1.635-.308a4.122 4.122 0 0 1-1.345-.87c-.38-.38-.682-.84-.905-1.38-.217-.545-.325-1.154-.325-1.828v-5.203h2.39v5.203c0 .317.047.6.14.853.1.246.232.454.396.624.165.17.355.299.572.386.222.088.46.132.712.132.246 0 .477-.055.694-.167.223-.117.416-.27.58-.457.164-.187.293-.398.387-.633.094-.24.14-.486.14-.738v-5.203h2.4v9.413h-.58l-.791-1.098Zm5.607 1.098h-2.4v-9.413h.58l.792 1.116a4.125 4.125 0 0 1 1.318-.808 4.146 4.146 0 0 1 1.53-.29h2.118v2.39h-2.119a1.815 1.815 0 0 0-1.292.528 1.816 1.816 0 0 0-.527 1.292v5.185Z" fill="#fff"/></svg>